<?xml version="1.0" encoding="UTF-8"?>
<!DOCTYPE svg PUBLIC "-//W3C//DTD SVG 1.1//EN" "http://www.w3.org/Graphics/SVG/1.1/DTD/svg11.dtd">
<svg xmlns="http://www.w3.org/2000/svg" version="1.1" width="100px" height="50px" style="shape-rendering:geometricPrecision; text-rendering:geometricPrecision; image-rendering:optimizeQuality; fill-rule:evenodd; clip-rule:evenodd" xmlns:xlink="http://www.w3.org/1999/xlink">
<g><path style="opacity:1" fill="#0c0921" d="M 14.5,-0.5 C 15.1667,-0.5 15.8333,-0.5 16.5,-0.5C 22.0386,5.43231 25.0386,12.599 25.5,21C 25.6842,22.3756 26.3509,23.2089 27.5,23.5C 26.8333,24.5 26.1667,25.5 25.5,26.5C 24.609,25.8902 23.609,25.5569 22.5,25.5C 23.2411,19.9592 22.2411,14.6259 19.5,9.5C 18.3295,12.8177 18.3295,16.151 19.5,19.5C 19.8178,20.6473 20.4844,21.4806 21.5,22C 20.6634,23.0113 20.33,24.1779 20.5,25.5C 19.1779,25.33 18.0113,25.6634 17,26.5C 16.3378,25.0161 15.5045,23.6828 14.5,22.5C 16.4779,21.6829 17.4779,20.1829 17.5,18C 16.3943,12.1307 15.3943,5.964 14.5,-0.5 Z"/></g>
<g><path style="opacity:1" fill="#080818" d="M 16.5,-0.5 C 34.5,-0.5 52.5,-0.5 70.5,-0.5C 77.9653,2.23889 85.4653,4.23889 93,5.5C 93.0072,2.69012 94.1738,0.690121 96.5,-0.5C 97.1667,-0.5 97.8333,-0.5 98.5,-0.5C 96.4854,2.86905 94.4854,6.20239 92.5,9.5C 92.2435,7.22387 90.9102,6.0572 88.5,6C 85.1029,7.18963 82.1029,6.52296 79.5,4C 74.4839,3.27713 69.6505,2.11046 65,0.5C 64.5,0.666667 64,0.833333 63.5,1C 65.1022,2.93468 66.2689,5.10135 67,7.5C 67.8159,8.82277 68.9826,9.48944 70.5,9.5C 71.9063,9.97306 72.573,10.9731 72.5,12.5C 76.3707,17.5565 80.704,22.2231 85.5,26.5C 86.3857,27.325 86.719,28.325 86.5,29.5C 81.611,30.5552 76.9444,32.2219 72.5,34.5C 73.1079,33.2003 73.7745,31.8669 74.5,30.5C 73.9076,28.5775 72.9076,26.9108 71.5,25.5C 68.2985,22.1578 65.2985,18.4911 62.5,14.5C 59.921,5.22926 59.0877,5.56259 60,15.5C 63.5291,22.0464 65.5291,29.0464 66,36.5C 66.6708,37.2524 67.5041,37.5858 68.5,37.5C 67.4955,38.6828 66.6622,40.0161 66,41.5C 65.0701,39.4476 63.5701,37.9476 61.5,37C 58.3821,35.9413 55.3821,34.6079 52.5,33C 49.6074,31.8512 46.6074,31.3512 43.5,31.5C 43.5,30.8333 43.8333,30.5 44.5,30.5C 47.0685,30.4057 48.5685,29.0724 49,26.5C 50.0275,21.0034 49.0275,16.0034 46,11.5C 44.147,13.9025 42.3137,16.2359 40.5,18.5C 38.6064,21.9389 36.4397,25.2722 34,28.5C 32.6667,24.5 31.3333,24.5 30,28.5C 29.8333,27.8333 29.6667,27.1667 29.5,26.5C 30.2485,24.9644 31.2485,23.6311 32.5,22.5C 32,22.1667 31.5,21.8333 31,21.5C 29.9231,22.4295 28.7564,23.0962 27.5,23.5C 26.3509,23.2089 25.6842,22.3756 25.5,21C 25.0386,12.599 22.0386,5.43231 16.5,-0.5 Z"/></g>
<g><path style="opacity:1" fill="#050712" d="M 70.5,-0.5 C 79.1667,-0.5 87.8333,-0.5 96.5,-0.5C 94.1738,0.690121 93.0072,2.69012 93,5.5C 85.4653,4.23889 77.9653,2.23889 70.5,-0.5 Z"/></g>
<g><path style="opacity:1" fill="#050712" d="M 20.5,1.5 C 34.3234,0.504183 48.3234,0.17085 62.5,0.5C 65.4259,10.2741 71.2592,17.9408 80,23.5C 80.6877,24.3317 80.521,24.9984 79.5,25.5C 71.8447,23.677 67.0114,19.0103 65,11.5C 58.9683,1.82286 56.3016,2.82286 57,14.5C 58.395,19.1309 60.2283,23.6309 62.5,28C 59.1731,27.9989 55.8397,27.4989 52.5,26.5C 52.0472,21.3118 50.8805,15.9784 49,10.5C 47.9667,7.96727 46.1334,6.3006 43.5,5.5C 39.237,9.61864 36.4037,14.6186 35,20.5C 34.6667,20.8333 34.3333,21.1667 34,21.5C 33.5172,20.552 33.3505,19.552 33.5,18.5C 31.8333,18.5 30.1667,18.5 28.5,18.5C 28.1816,13.1831 26.6816,8.18315 24,3.5C 23.1841,2.17723 22.0174,1.51056 20.5,1.5 Z"/></g>
<g><path style="opacity:1" fill="#080818" d="M -0.5,-0.5 C 4.5,-0.5 9.5,-0.5 14.5,-0.5C 15.3943,5.964 16.3943,12.1307 17.5,18C 17.4779,20.1829 16.4779,21.6829 14.5,22.5C 14.8515,19.9272 14.3515,17.5938 13,15.5C 11.8904,17.0368 10.3904,17.7035 8.5,17.5C 7.83333,17.5 7.5,17.1667 7.5,16.5C 6.16667,16.1667 4.83333,15.8333 3.5,15.5C 3.80756,13.076 3.47423,10.7427 2.5,8.5C 0.239457,10.4835 -0.0938766,12.8169 1.5,15.5C 1.15829,16.3382 0.491622,16.6716 -0.5,16.5C -0.5,10.8333 -0.5,5.16667 -0.5,-0.5 Z"/></g>
<g><path style="opacity:1" fill="#050713" d="M 0.5,0.5 C 4.55461,0.175753 8.55461,0.509086 12.5,1.5C 14.2328,5.69543 14.7328,10.0288 14,14.5C 12.3006,10.8864 9.46725,8.55302 5.5,7.5C 3.75123,5.10696 2.08456,2.77363 0.5,0.5 Z"/></g>
<g><path style="opacity:1" fill="#110d2e" d="M 72.5,12.5 C 72.573,10.9731 71.9063,9.97306 70.5,9.5C 70.1231,7.74203 69.4565,6.07536 68.5,4.5C 77.1112,3.52505 83.1112,7.19171 86.5,15.5C 85.9488,18.0561 84.9488,20.3894 83.5,22.5C 80.3329,18.3192 76.6663,14.9858 72.5,12.5 Z"/></g>
<g><path style="opacity:1" fill="#0c0a22" d="M 44.5,30.5 C 45.355,29.4693 46.0217,28.3026 46.5,27C 45.9554,23.8132 45.2887,20.6465 44.5,17.5C 41.6013,22.6265 39.268,27.9598 37.5,33.5C 36.2794,34.0283 35.1127,34.695 34,35.5C 33.5172,34.552 33.3505,33.552 33.5,32.5C 36.8909,28.3848 39.2243,23.7181 40.5,18.5C 42.3137,16.2359 44.147,13.9025 46,11.5C 49.0275,16.0034 50.0275,21.0034 49,26.5C 48.5685,29.0724 47.0685,30.4057 44.5,30.5 Z"/></g>
<g><path style="opacity:1" fill="#0f0922" d="M 92.5,9.5 C 90.8333,9.5 89.1667,9.5 87.5,9.5C 87.3832,11.4835 88.0499,13.1502 89.5,14.5C 87.4567,17.882 86.6234,21.5487 87,25.5C 87.6708,26.2524 88.5041,26.5858 89.5,26.5C 89.5,27.1667 89.5,27.8333 89.5,28.5C 88.5084,28.3284 87.8417,28.6618 87.5,29.5C 87.1667,29.5 86.8333,29.5 86.5,29.5C 86.719,28.325 86.3857,27.325 85.5,26.5C 80.704,22.2231 76.3707,17.5565 72.5,12.5C 76.6663,14.9858 80.3329,18.3192 83.5,22.5C 84.9488,20.3894 85.9488,18.0561 86.5,15.5C 83.1112,7.19171 77.1112,3.52505 68.5,4.5C 69.4565,6.07536 70.1231,7.74203 70.5,9.5C 68.9826,9.48944 67.8159,8.82277 67,7.5C 66.2689,5.10135 65.1022,2.93468 63.5,1C 64,0.833333 64.5,0.666667 65,0.5C 69.6505,2.11046 74.4839,3.27713 79.5,4C 82.1029,6.52296 85.1029,7.18963 88.5,6C 90.9102,6.0572 92.2435,7.22387 92.5,9.5 Z"/></g>
<g><path style="opacity:1" fill="#140923" d="M 3.5,15.5 C 2.83333,15.5 2.16667,15.5 1.5,15.5C -0.0938766,12.8169 0.239457,10.4835 2.5,8.5C 3.47423,10.7427 3.80756,13.076 3.5,15.5 Z"/></g>
<g><path style="opacity:1" fill="#130922" d="M 7.5,16.5 C 7.5,14.8333 7.5,13.1667 7.5,11.5C 9.34642,11.2222 10.6798,11.8888 11.5,13.5C 10.9234,15.5499 9.59007,16.5499 7.5,16.5 Z"/></g>
<g><path style="opacity:1" fill="#120922" d="M 14.5,22.5 C 12.4602,20.823 10.4602,19.1563 8.5,17.5C 10.3904,17.7035 11.8904,17.0368 13,15.5C 14.3515,17.5938 14.8515,19.9272 14.5,22.5 Z"/></g>
<g><path style="opacity:1" fill="#100c29" d="M 22.5,25.5 C 21.8333,25.5 21.1667,25.5 20.5,25.5C 20.33,24.1779 20.6634,23.0113 21.5,22C 20.4844,21.4806 19.8178,20.6473 19.5,19.5C 18.3295,16.151 18.3295,12.8177 19.5,9.5C 22.2411,14.6259 23.2411,19.9592 22.5,25.5 Z"/></g>
<g><path style="opacity:1" fill="#080818" d="M 92.5,9.5 C 90.747,15.0168 89.747,20.6835 89.5,26.5C 88.5041,26.5858 87.6708,26.2524 87,25.5C 86.6234,21.5487 87.4567,17.882 89.5,14.5C 88.0499,13.1502 87.3832,11.4835 87.5,9.5C 89.1667,9.5 90.8333,9.5 92.5,9.5 Z"/></g>
<g><path style="opacity:1" fill="#0c0a22" d="M 71.5,25.5 C 69.8042,25.3146 68.4709,24.4813 67.5,23C 66.5,22.3333 65.5,22.3333 64.5,23C 65.1472,28.0778 66.4805,32.9111 68.5,37.5C 67.5041,37.5858 66.6708,37.2524 66,36.5C 65.5291,29.0464 63.5291,22.0464 60,15.5C 59.0877,5.56259 59.921,5.22926 62.5,14.5C 65.2985,18.4911 68.2985,22.1578 71.5,25.5 Z"/></g>
<g><path style="opacity:1" fill="#120c2c" d="M 71.5,25.5 C 72.9076,26.9108 73.9076,28.5775 74.5,30.5C 73.7745,31.8669 73.1079,33.2003 72.5,34.5C 71.1667,35.5 69.8333,36.5 68.5,37.5C 66.4805,32.9111 65.1472,28.0778 64.5,23C 65.5,22.3333 66.5,22.3333 67.5,23C 68.4709,24.4813 69.8042,25.3146 71.5,25.5 Z"/></g>
<g><path style="opacity:1" fill="#130d2d" d="M 44.5,30.5 C 43.8333,30.5 43.5,30.8333 43.5,31.5C 41.6976,32.4582 39.6976,33.1249 37.5,33.5C 39.268,27.9598 41.6013,22.6265 44.5,17.5C 45.2887,20.6465 45.9554,23.8132 46.5,27C 46.0217,28.3026 45.355,29.4693 44.5,30.5 Z"/></g>
<g><path style="opacity:1" fill="#130821" d="M 75.5,27.5 C 77.2637,26.2878 78.9303,26.6212 80.5,28.5C 78.6029,29.6518 76.9362,29.3185 75.5,27.5 Z"/></g>
<g><path style="opacity:1" fill="#0c081c" d="M 40.5,18.5 C 39.2243,23.7181 36.8909,28.3848 33.5,32.5C 30.795,30.4884 28.1283,28.4884 25.5,26.5C 26.1667,25.5 26.8333,24.5 27.5,23.5C 28.7564,23.0962 29.9231,22.4295 31,21.5C 31.5,21.8333 32,22.1667 32.5,22.5C 31.2485,23.6311 30.2485,24.9644 29.5,26.5C 29.6667,27.1667 29.8333,27.8333 30,28.5C 31.3333,24.5 32.6667,24.5 34,28.5C 36.4397,25.2722 38.6064,21.9389 40.5,18.5 Z"/></g>
<g><path style="opacity:1" fill="#120820" d="M 57.5,28.5 C 60.2921,29.3918 61.6254,31.3918 61.5,34.5C 60.1667,34.5 58.8333,34.5 57.5,34.5C 57.5,32.5 57.5,30.5 57.5,28.5 Z"/></g>
<g><path style="opacity:1" fill="#1e1f5e" d="M 87.5,29.5 C 87.8417,28.6618 88.5084,28.3284 89.5,28.5C 90.7733,29.0768 90.7733,29.7435 89.5,30.5C 88.8165,30.1373 88.1499,29.8039 87.5,29.5 Z"/></g>
<g><path style="opacity:0.063" fill="#203070" d="M 89.5,31.5 C 90.8333,32.1667 90.8333,32.1667 89.5,31.5 Z"/></g>
<g><path style="opacity:0.063" fill="#202040" d="M 34.5,38.5 C 35.8333,39.1667 35.8333,39.1667 34.5,38.5 Z"/></g>
</svg>
