<?xml version="1.0" encoding="UTF-8"?>
<!DOCTYPE svg PUBLIC "-//W3C//DTD SVG 1.1//EN" "http://www.w3.org/Graphics/SVG/1.1/DTD/svg11.dtd">
<svg xmlns="http://www.w3.org/2000/svg" version="1.1" width="100px" height="50px" style="shape-rendering:geometricPrecision; text-rendering:geometricPrecision; image-rendering:optimizeQuality; fill-rule:evenodd; clip-rule:evenodd" xmlns:xlink="http://www.w3.org/1999/xlink">
<g><path style="opacity:1" fill="#f6f4f3" d="M -0.5,-0.5 C 5.5,-0.5 11.5,-0.5 17.5,-0.5C 24.2821,5.09017 27.2821,12.4235 26.5,21.5C 25.5,21.5 24.5,21.5 23.5,21.5C 23.8954,17.815 24.0621,14.1483 24,10.5C 22.4293,8.07714 20.2626,6.74381 17.5,6.5C 17.5,11.1667 17.5,15.8333 17.5,20.5C 16.8386,19.2825 16.1719,17.9492 15.5,16.5C 14.2613,16.0576 13.2613,15.3909 12.5,14.5C 12.3318,11.9486 11.3318,11.2819 9.5,12.5C 7.05035,12.702 4.71702,12.3686 2.5,11.5C 2.19593,9.20432 1.19593,8.87099 -0.5,10.5C -0.5,6.83333 -0.5,3.16667 -0.5,-0.5 Z"/></g>
<g><path style="opacity:1" fill="#f8fbfb" d="M 17.5,-0.5 C 19.5,-0.5 21.5,-0.5 23.5,-0.5C 26.7373,3.38134 29.0707,7.88134 30.5,13C 32.5,13.6667 34.5,13.6667 36.5,13C 37.7938,10.913 38.9605,8.74632 40,6.5C 42.0445,5.22804 43.8778,5.56138 45.5,7.5C 47.5416,11.1998 50.2083,14.1998 53.5,16.5C 56.2376,15.2717 58.5709,13.4383 60.5,11C 62.7972,10.9822 65.1305,11.1489 67.5,11.5C 67.3367,9.14316 67.5034,6.80982 68,4.5C 69.8022,3.21075 70.9688,1.54408 71.5,-0.5C 80.8333,-0.5 90.1667,-0.5 99.5,-0.5C 99.5,0.833333 99.5,2.16667 99.5,3.5C 98.596,2.79105 98.2627,1.79105 98.5,0.5C 97.448,0.350549 96.448,0.517215 95.5,1C 94.7171,3.11835 93.3838,4.61835 91.5,5.5C 90.709,0.0865816 88.709,-0.580085 85.5,3.5C 84.0772,5.54486 82.0772,6.54486 79.5,6.5C 77.0314,5.93287 74.698,5.93287 72.5,6.5C 71.441,8.72602 71.6077,11.0594 73,13.5C 76.7088,17.3716 80.2088,21.3716 83.5,25.5C 79.8792,26.6943 76.2125,27.6943 72.5,28.5C 71.1483,22.1275 67.4816,18.7942 61.5,18.5C 63.7172,22.3726 65.7172,26.3726 67.5,30.5C 64.8633,31.6303 62.1967,31.6303 59.5,30.5C 59.585,32.9288 60.585,34.9288 62.5,36.5C 60.939,37.3473 59.439,37.0139 58,35.5C 57.8078,33.4233 57.3078,31.4233 56.5,29.5C 55.0295,30.3805 54.1962,31.7139 54,33.5C 50.9772,31.3024 48.1438,28.969 45.5,26.5C 45.6657,22.1539 45.499,17.8206 45,13.5C 42.3635,17.8406 40.5301,22.5073 39.5,27.5C 38.8333,27.5 38.5,27.8333 38.5,28.5C 36.3284,27.7945 34.3284,26.7945 32.5,25.5C 32.9926,23.1944 33.3259,20.861 33.5,18.5C 32.325,18.281 31.325,18.6143 30.5,19.5C 30.0576,20.7387 29.3909,21.7387 28.5,22.5C 28.1583,21.6618 27.4916,21.3284 26.5,21.5C 27.2821,12.4235 24.2821,5.09017 17.5,-0.5 Z"/></g>
<g><path style="opacity:1" fill="#dafffe" d="M 23.5,-0.5 C 39.5,-0.5 55.5,-0.5 71.5,-0.5C 70.9688,1.54408 69.8022,3.21075 68,4.5C 67.5034,6.80982 67.3367,9.14316 67.5,11.5C 65.1305,11.1489 62.7972,10.9822 60.5,11C 58.5709,13.4383 56.2376,15.2717 53.5,16.5C 50.2083,14.1998 47.5416,11.1998 45.5,7.5C 43.8778,5.56138 42.0445,5.22804 40,6.5C 38.9605,8.74632 37.7938,10.913 36.5,13C 34.5,13.6667 32.5,13.6667 30.5,13C 29.0707,7.88134 26.7373,3.38134 23.5,-0.5 Z"/></g>
<g><path style="opacity:1" fill="#f0d488" d="M 2.5,0.5 C 11.6643,0.9588 11.6643,1.9588 2.5,3.5C 2.5,2.5 2.5,1.5 2.5,0.5 Z"/></g>
<g><path style="opacity:1" fill="#dabf5c" d="M 2.5,11.5 C 1.72813,12.6935 0.728127,13.6935 -0.5,14.5C -0.5,13.1667 -0.5,11.8333 -0.5,10.5C 1.19593,8.87099 2.19593,9.20432 2.5,11.5 Z"/></g>
<g><path style="opacity:1" fill="#ecce7c" d="M 79.5,6.5 C 82.5361,6.98623 85.2027,8.31956 87.5,10.5C 85.4707,12.8585 83.4707,15.1918 81.5,17.5C 79.3274,14.8278 76.8274,12.4945 74,10.5C 73.2086,9.25501 72.7086,7.92167 72.5,6.5C 74.698,5.93287 77.0314,5.93287 79.5,6.5 Z"/></g>
<g><path style="opacity:1" fill="#e1bc50" d="M 22.5,21.5 C 22.5,21.8333 22.5,22.1667 22.5,22.5C 21.1667,22.5 19.8333,22.5 18.5,22.5C 18.3341,17.4889 18.5007,12.4889 19,7.5C 20.3848,8.55054 21.3848,9.88387 22,11.5C 22.4983,14.8168 22.665,18.1501 22.5,21.5 Z"/></g>
<g><path style="opacity:1" fill="#ccd491" d="M 12.5,14.5 C 11.71,15.6085 11.21,16.9419 11,18.5C 7.64048,16.7984 7.14048,14.7984 9.5,12.5C 11.3318,11.2819 12.3318,11.9486 12.5,14.5 Z"/></g>
<g><path style="opacity:1" fill="#e0cd95" d="M 23.5,21.5 C 23.1667,21.5 22.8333,21.5 22.5,21.5C 22.665,18.1501 22.4983,14.8168 22,11.5C 21.3848,9.88387 20.3848,8.55054 19,7.5C 18.5007,12.4889 18.3341,17.4889 18.5,22.5C 17.6618,22.1583 17.3284,21.4916 17.5,20.5C 17.5,15.8333 17.5,11.1667 17.5,6.5C 20.2626,6.74381 22.4293,8.07714 24,10.5C 24.0621,14.1483 23.8954,17.815 23.5,21.5 Z"/></g>
<g><path style="opacity:1" fill="#eeedeb" d="M 91.5,5.5 C 90.2627,10.2239 88.2627,14.5573 85.5,18.5C 86.4669,20.7617 87.1336,23.095 87.5,25.5C 86.1667,25.5 84.8333,25.5 83.5,25.5C 80.2088,21.3716 76.7088,17.3716 73,13.5C 71.6077,11.0594 71.441,8.72602 72.5,6.5C 72.7086,7.92167 73.2086,9.25501 74,10.5C 76.8274,12.4945 79.3274,14.8278 81.5,17.5C 83.4707,15.1918 85.4707,12.8585 87.5,10.5C 85.2027,8.31956 82.5361,6.98623 79.5,6.5C 82.0772,6.54486 84.0772,5.54486 85.5,3.5C 88.709,-0.580085 90.709,0.0865816 91.5,5.5 Z"/></g>
<g><path style="opacity:1" fill="#efd079" d="M 85.5,3.5 C 89.5878,3.21844 90.0878,3.88511 87,5.5C 85.9701,5.16389 85.4701,4.49722 85.5,3.5 Z"/></g>
<g><path style="opacity:0.831" fill="#e9fefe" d="M 99.5,3.5 C 99.5,7.16667 99.5,10.8333 99.5,14.5C 96.9906,16.2554 94.3239,17.7554 91.5,19C 92.3567,19.6891 93.0233,20.5224 93.5,21.5C 92.2086,22.5272 92.2086,23.5272 93.5,24.5C 92.8333,24.5 92.5,24.8333 92.5,25.5C 91.8333,27.1667 91.1667,28.8333 90.5,30.5C 90.1583,29.6618 89.4916,29.3284 88.5,29.5C 88.7678,27.901 88.4345,26.5676 87.5,25.5C 87.1336,23.095 86.4669,20.7617 85.5,18.5C 88.2627,14.5573 90.2627,10.2239 91.5,5.5C 93.3838,4.61835 94.7171,3.11835 95.5,1C 96.448,0.517215 97.448,0.350549 98.5,0.5C 98.2627,1.79105 98.596,2.79105 99.5,3.5 Z"/></g>
<g><path style="opacity:1" fill="#bfcc85" d="M 18.5,22.5 C 19.8333,22.5 21.1667,22.5 22.5,22.5C 22.2294,24.4305 21.2294,25.7638 19.5,26.5C 18.5655,25.4324 18.2322,24.099 18.5,22.5 Z"/></g>
<g><path style="opacity:1" fill="#eed791" d="M 45.5,26.5 C 43.5,26.8333 41.5,27.1667 39.5,27.5C 40.5301,22.5073 42.3635,17.8406 45,13.5C 45.499,17.8206 45.6657,22.1539 45.5,26.5 Z"/></g>
<g><path style="opacity:1" fill="#ebdea9" d="M 72.5,28.5 C 73.1098,29.391 73.4431,30.391 73.5,31.5C 71.9731,31.427 70.9731,32.0937 70.5,33.5C 69.8333,33.5 69.5,33.1667 69.5,32.5C 69.1667,31.5 68.5,30.8333 67.5,30.5C 65.7172,26.3726 63.7172,22.3726 61.5,18.5C 67.4816,18.7942 71.1483,22.1275 72.5,28.5 Z"/></g>
<g><path style="opacity:0.004" fill="#fefffe" d="M 93.5,24.5 C 94.8333,25.1667 94.8333,25.1667 93.5,24.5 Z"/></g>
<g><path style="opacity:1" fill="#d4d488" d="M 32.5,25.5 C 32.728,27.3547 32.0613,28.1881 30.5,28C 28.8446,26.5557 28.178,24.7224 28.5,22.5C 29.3909,21.7387 30.0576,20.7387 30.5,19.5C 31.325,18.6143 32.325,18.281 33.5,18.5C 33.3259,20.861 32.9926,23.1944 32.5,25.5 Z"/></g>
<g><path style="opacity:0.004" fill="#fefffe" d="M 92.5,25.5 C 92.8333,25.5 93.1667,25.5 93.5,25.5C 93.3147,26.1701 92.9813,26.1701 92.5,25.5 Z"/></g>
<g><path style="opacity:0.631" fill="#c7f8f5" d="M 2.5,11.5 C 4.71702,12.3686 7.05035,12.702 9.5,12.5C 7.14048,14.7984 7.64048,16.7984 11,18.5C 11.21,16.9419 11.71,15.6085 12.5,14.5C 13.2613,15.3909 14.2613,16.0576 15.5,16.5C 16.1719,17.9492 16.8386,19.2825 17.5,20.5C 17.3284,21.4916 17.6618,22.1583 18.5,22.5C 18.2322,24.099 18.5655,25.4324 19.5,26.5C 19.2089,27.6491 18.3756,28.3158 17,28.5C 16.1667,28.3333 15.3333,28.1667 14.5,28C 12.8671,19.8753 7.86712,16.0419 -0.5,16.5C -0.5,15.8333 -0.5,15.1667 -0.5,14.5C 0.728127,13.6935 1.72813,12.6935 2.5,11.5 Z"/></g>
<g><path style="opacity:1" fill="#ccf6f5" d="M 83.5,25.5 C 84.8333,25.5 86.1667,25.5 87.5,25.5C 88.4345,26.5676 88.7678,27.901 88.5,29.5C 86.901,29.2322 85.5676,29.5655 84.5,30.5C 83.1999,31.8267 81.8665,33.16 80.5,34.5C 79.0416,35.782 77.7082,35.782 76.5,34.5C 76.7148,32.8212 76.0481,31.8212 74.5,31.5C 74.1667,31.5 73.8333,31.5 73.5,31.5C 73.4431,30.391 73.1098,29.391 72.5,28.5C 76.2125,27.6943 79.8792,26.6943 83.5,25.5 Z"/></g>
<g><path style="opacity:1" fill="#cad995" d="M 45.5,26.5 C 46.6571,30.3143 44.9904,32.1476 40.5,32C 39.6195,32.7083 38.9528,33.5416 38.5,34.5C 37.1667,34.8333 35.8333,35.1667 34.5,35.5C 36.5669,33.6823 37.9003,31.349 38.5,28.5C 38.5,27.8333 38.8333,27.5 39.5,27.5C 41.5,27.1667 43.5,26.8333 45.5,26.5 Z"/></g>
<g><path style="opacity:0.195" fill="#8efdfb" d="M 84.5,30.5 C 85.5676,29.5655 86.901,29.2322 88.5,29.5C 89.4916,29.3284 90.1583,29.6618 90.5,30.5C 90.5,31.5 90.5,32.5 90.5,33.5C 88.0122,33.3167 86.0122,32.3167 84.5,30.5 Z"/></g>
<g><path style="opacity:1" fill="#c8f7f4" d="M 22.5,21.5 C 22.8333,21.5 23.1667,21.5 23.5,21.5C 24.5,21.5 25.5,21.5 26.5,21.5C 27.4916,21.3284 28.1583,21.6618 28.5,22.5C 28.178,24.7224 28.8446,26.5557 30.5,28C 32.0613,28.1881 32.728,27.3547 32.5,25.5C 34.3284,26.7945 36.3284,27.7945 38.5,28.5C 37.9003,31.349 36.5669,33.6823 34.5,35.5C 33.0413,35.5674 31.7079,35.2341 30.5,34.5C 30.2923,27.3085 26.6256,24.6418 19.5,26.5C 21.2294,25.7638 22.2294,24.4305 22.5,22.5C 22.5,22.1667 22.5,21.8333 22.5,21.5 Z"/></g>
<g><path style="opacity:0.592" fill="#ddb535" d="M 73.5,31.5 C 73.8333,31.5 74.1667,31.5 74.5,31.5C 74.5299,32.4972 74.0299,33.1639 73,33.5C 71.8691,34.3353 71.0358,34.3353 70.5,33.5C 70.9731,32.0937 71.9731,31.427 73.5,31.5 Z"/></g>
<g><path style="opacity:0.074" fill="#fdfffe" d="M 60.5,40.5 C 60.5,41.1667 60.8333,41.5 61.5,41.5C 60.7095,42.4013 59.7095,43.0679 58.5,43.5C 58.1667,42.1667 57.8333,42.1667 57.5,43.5C 53.8093,43.5308 49.8093,42.1975 45.5,39.5C 44.4826,42.028 43.3159,42.028 42,39.5C 41.6667,39.8333 41.3333,40.1667 41,40.5C 39.2745,39.536 37.4412,38.8693 35.5,38.5C 34.4324,37.5655 33.099,37.2322 31.5,37.5C 30.9094,36.8485 30.2427,36.1818 29.5,35.5C 29.6236,34.8933 29.9569,34.56 30.5,34.5C 31.7079,35.2341 33.0413,35.5674 34.5,35.5C 35.8333,35.1667 37.1667,34.8333 38.5,34.5C 42.1122,33.4886 45.7789,33.3219 49.5,34C 53.1619,36.1647 56.8286,38.3314 60.5,40.5 Z"/></g>
<g><path style="opacity:0.019" fill="#f7f7f6" d="M 74.5,31.5 C 76.0481,31.8212 76.7148,32.8212 76.5,34.5C 74.4015,35.2332 72.0682,36.2332 69.5,37.5C 66.849,35.8006 66.849,34.134 69.5,32.5C 69.5,33.1667 69.8333,33.5 70.5,33.5C 71.0358,34.3353 71.8691,34.3353 73,33.5C 74.0299,33.1639 74.5299,32.4972 74.5,31.5 Z"/></g>
<g><path style="opacity:0.008" fill="#fefffe" d="M 31.5,37.5 C 30.8333,38.1667 30.8333,38.1667 31.5,37.5 Z"/></g>
<g><path style="opacity:0.886" fill="#c9f9f7" d="M 45.5,26.5 C 48.1438,28.969 50.9772,31.3024 54,33.5C 54.1962,31.7139 55.0295,30.3805 56.5,29.5C 57.3078,31.4233 57.8078,33.4233 58,35.5C 59.439,37.0139 60.939,37.3473 62.5,36.5C 60.585,34.9288 59.585,32.9288 59.5,30.5C 62.1967,31.6303 64.8633,31.6303 67.5,30.5C 68.5,30.8333 69.1667,31.5 69.5,32.5C 66.849,34.134 66.849,35.8006 69.5,37.5C 69.6841,40.3213 68.3507,41.9879 65.5,42.5C 64.2638,41.7542 62.9305,41.4208 61.5,41.5C 60.8333,41.5 60.5,41.1667 60.5,40.5C 56.8286,38.3314 53.1619,36.1647 49.5,34C 45.7789,33.3219 42.1122,33.4886 38.5,34.5C 38.9528,33.5416 39.6195,32.7083 40.5,32C 44.9904,32.1476 46.6571,30.3143 45.5,26.5 Z"/></g>
<g><path style="opacity:0.051" fill="#14143b" d="M 35.5,38.5 C 34.8333,39.1667 34.8333,39.1667 35.5,38.5 Z"/></g>
<g><path style="opacity:0.008" fill="#fefffe" d="M 57.5,43.5 C 57.8333,43.5 58.1667,43.5 58.5,43.5C 58.3147,44.1701 57.9813,44.1701 57.5,43.5 Z"/></g>
</svg>
